<svg version="1" xmlns="http://www.w3.org/2000/svg" width="298" height="345.098" viewBox="0 0 298 345.098"><path fill="#DEDEDE" d="M293.057 157.98c-5.44-20.657-15.198-39.563-28.273-55.688l8.567-8.563c6.075-6.08 6.075-15.93 0-22-3.332-3.34-7.78-4.657-12.127-4.334-3.597.254-7.146 1.596-9.866 4.333l-8.563 8.56c-9.084-7.355-19.082-13.553-29.734-18.628-9.618-4.558-19.752-8.195-30.34-10.67-.09-.015-.204-.015-.31-.037-4.588-1.064-9.205-1.984-13.963-2.613v-9.44h6.88c10.736 0 19.445-8.71 19.445-19.473 0-10.725-8.708-19.43-19.445-19.43h-53.832c-1.713 0-3.356.287-4.96.696 0 0-.01.03-.02.03-8.326 2.2-14.463 9.714-14.463 18.703 0 10.764 8.71 19.473 19.442 19.473h8.062v9.438c-50.086 6.536-92.22 38-113.856 81.452-4.32 8.657-7.893 17.744-10.454 27.237C1.846 169.483 0 182.553 0 196.09c0 64.416 40.952 119.158 98.227 139.945 15.87 5.734 32.922 9.063 50.772 9.063 7.433 0 14.734-.56 21.85-1.634.763-.096 1.485-.32 2.25-.45 20.968-3.433 40.53-11.17 57.6-22.393 23.57-15.494 42.376-37.462 54.08-63.387 8.423-18.7 13.222-39.326 13.222-61.145-.003-13.167-1.727-25.934-4.946-38.107zm-66.21 115.963c-14.193 14.188-31.58 23.877-50.54 28.734-6.5 1.626-13.258 2.51-20.066 2.967-.97.06-1.88.23-2.843.24-1.476.072-2.916.3-4.396.3-4.043 0-8.06-.262-12.033-.69-24.86-2.697-47.885-13.608-65.823-31.55C50.35 253.15 38.886 225.49 38.886 196.09c0-2.33.198-4.6.334-6.898 1.658-26.815 12.765-51.82 31.923-70.97 2.383-2.37 4.875-4.595 7.42-6.735l.017-.013c19.75-16.48 44.38-25.5 70.42-25.5 4.758 0 9.44.326 14.05.93 14.464 1.87 28.25 6.57 40.745 13.758.136.083.285.185.408.28 8.15 4.744 15.8 10.446 22.646 17.28 1.605 1.62 3.064 3.335 4.547 5.03.055.056.104.12.167.186 3.024 3.445 5.73 7.14 8.292 10.887 1.63 2.442 3.264 4.894 4.693 7.43 8.845 15.45 13.85 32.854 14.386 51.07.038 1.09.152 2.148.152 3.262-.002 29.4-11.445 57.06-32.242 77.853z"/></svg>