<svg xmlns="http://www.w3.org/2000/svg" viewBox="0 0 60.498889 40.372999"><path d="M60.498 28.32c0-.054-.01-.105-.016-.158-.006-.05-.01-.098-.02-.146-.002-.01 0-.017-.003-.025L55.285 6.65c-.36-2.347-2.593-6.65-8.6-6.65-.828 0-1.5.67-1.5 1.5s.672 1.5 1.5 1.5c4.857 0 5.576 3.73 5.64 4.143l4.767 19.7H55.02c-.74-5.926-5.8-10.53-11.926-10.53s-11.186 4.604-11.927 10.53H29.46c-.743-5.926-5.803-10.53-11.928-10.53-6.125 0-11.186 4.604-11.928 10.53H3.407L8.147 7.29l.027-.146C8.197 6.974 8.802 3 13.812 3c.83 0 1.5-.67 1.5-1.5s-.67-1.5-1.5-1.5c-6.006 0-8.238 4.303-8.6 6.65L.042 27.99c0 .01 0 .017-.002.025-.012.05-.015.098-.02.146-.008.055-.017.106-.017.16L0 28.344c0 .035.008.068.01.103.004.058.007.115.017.17.01.047.023.092.036.137.014.048.026.096.044.142.018.046.042.09.064.133.023.04.044.084.07.123.025.04.056.078.085.115.03.04.06.078.093.113.032.033.067.062.102.092.038.033.075.067.116.097.04.026.082.05.123.072.04.023.08.05.126.07.05.02.1.036.152.053.035.012.067.028.104.037.008.002.015 0 .023.003.107.023.217.04.33.04H5.6c.74 5.926 5.8 10.53 11.926 10.53 6.125 0 11.185-4.604 11.926-10.53h1.708c.742 5.926 5.802 10.53 11.927 10.53s11.187-4.604 11.928-10.53H59c.114 0 .224-.017.33-.04.01-.002.016 0 .024-.003.037-.01.07-.025.105-.037.05-.017.102-.032.15-.054.045-.02.086-.047.13-.07.04-.024.082-.047.12-.074.043-.03.08-.064.118-.098.033-.03.07-.06.1-.092.035-.035.064-.074.094-.113.03-.037.06-.074.086-.114.025-.04.045-.083.067-.125.023-.044.046-.088.064-.134.02-.045.03-.093.044-.14.013-.046.027-.09.036-.137.01-.056.014-.113.018-.17.002-.035.01-.068.01-.104.002-.01 0-.017 0-.025zM17.53 37.375c-4.474 0-8.18-3.26-8.895-7.53-.082-.49-.135-.99-.135-1.5s.053-1.012.135-1.5c.716-4.272 4.42-7.532 8.896-7.532 4.477 0 8.183 3.26 8.898 7.53.082.49.135.99.135 1.5s-.053 1.012-.135 1.5c-.715 4.273-4.42 7.532-8.896 7.532zm25.564 0c-4.475 0-8.18-3.26-8.896-7.53-.082-.49-.135-.99-.135-1.5s.053-1.012.135-1.5c.716-4.272 4.42-7.532 8.896-7.532 4.476 0 8.18 3.26 8.896 7.53.082.49.135.99.135 1.5s-.053 1.012-.135 1.5c-.716 4.273-4.42 7.532-8.896 7.532z" fill="#d22856"/></svg>