<?xml version="1.0" encoding="utf-8"?>
<!-- Generator: Adobe Illustrator 13.0.0, SVG Export Plug-In . SVG Version: 6.00 Build 14948)  -->
<!DOCTYPE svg PUBLIC "-//W3C//DTD SVG 1.0//EN" "http://www.w3.org/TR/2001/REC-SVG-20010904/DTD/svg10.dtd">
<svg version="1.0" id="Layer_1" xmlns="http://www.w3.org/2000/svg" xmlns:xlink="http://www.w3.org/1999/xlink" x="0px" y="0px"
	 width="298px" height="345.098px" viewBox="0 0 298 345.098" enable-background="new 0 0 298 345.098" xml:space="preserve">
<g>
	<path fill="#EEEEEE" d="M293.057,157.98c-5.441-20.657-15.198-39.563-28.273-55.688l8.567-8.563c6.073-6.077,6.073-15.929,0-21.999
		c-3.334-3.34-7.78-4.656-12.129-4.333c-3.597,0.254-7.146,1.596-9.866,4.333l-8.563,8.56c-9.084-7.354-19.082-13.552-29.734-18.627
		c-9.617-4.558-19.751-8.195-30.338-10.669c-0.09-0.016-0.205-0.016-0.311-0.038c-4.588-1.064-9.205-1.984-13.963-2.613v-7.979
		V40.21v-1.306h6.879c10.737,0,19.446-8.709,19.446-19.474C194.773,8.706,186.064,0,175.327,0h-6.879h-38.891h-8.062
		c-1.713,0-3.356,0.288-4.96,0.697c0,0-0.009,0.029-0.02,0.029c-8.326,2.201-14.463,9.715-14.463,18.704
		c0,10.765,8.709,19.474,19.442,19.474h8.062v9.438C79.47,54.876,37.337,86.339,15.7,129.791
		c-4.32,8.658-7.893,17.745-10.454,27.238C1.846,169.485,0,182.555,0,196.089c0,64.417,40.952,119.159,98.227,139.946
		c15.871,5.734,32.922,9.063,50.772,9.063c7.435,0,14.736-0.56,21.853-1.634c0.762-0.096,1.484-0.32,2.251-0.45
		c20.966-3.433,40.528-11.171,57.597-22.393c23.57-15.496,42.377-37.464,54.08-63.389c8.424-18.701,13.223-39.326,13.223-61.145
		C298,182.92,296.276,170.153,293.057,157.98z M226.848,273.943c-14.194,14.188-31.581,23.877-50.54,28.734
		c-6.501,1.626-13.259,2.511-20.067,2.967c-0.971,0.061-1.881,0.229-2.845,0.24c-1.476,0.072-2.916,0.299-4.396,0.299
		c-4.044,0-8.062-0.261-12.034-0.688c-24.859-2.698-47.885-13.609-65.823-31.552c-20.794-20.793-32.258-48.454-32.258-77.854
		c0-2.328,0.198-4.599,0.334-6.896c1.659-26.815,12.766-51.821,31.924-70.969c2.383-2.372,4.875-4.596,7.421-6.736l0.016-0.013
		c19.75-16.48,44.379-25.5,70.421-25.5c4.757,0,9.438,0.326,14.05,0.929c14.463,1.872,28.248,6.572,40.744,13.759
		c0.136,0.083,0.285,0.185,0.408,0.279c8.15,4.745,15.799,10.447,22.646,17.282c1.607,1.62,3.066,3.334,4.549,5.03
		c0.055,0.055,0.104,0.12,0.167,0.185c3.024,3.446,5.729,7.142,8.292,10.888c1.629,2.442,3.264,4.894,4.693,7.431
		c8.846,15.449,13.852,32.853,14.387,51.07c0.038,1.088,0.152,2.147,0.152,3.261C259.088,225.489,247.645,253.15,226.848,273.943z"
		/>
</g>
</svg>
